<svg width="265" height="265" viewBox="0 0 265 265" fill="none" xmlns="http://www.w3.org/2000/svg">
<path d="M56.0727 92.798C58.7703 86.4007 68.2297 86.4006 70.9272 92.798L102.409 167.46C104.535 172.5 100.66 178 94.9822 178H32.0177C26.3401 178 22.4649 172.5 24.5905 167.46L56.0727 92.798Z" fill="#242424"/>
<path d="M211.927 171.202C209.23 177.599 199.77 177.599 197.073 171.202L165.591 96.5405C163.465 91.4995 167.34 86 173.018 86L235.982 86C241.66 86 245.535 91.4995 243.409 96.5405L211.927 171.202Z" fill="#797979"/>
<path d="M87.4346 99.2035C84.6354 91.9114 88.6982 86 96.5091 86H139.755C145.616 86 152.069 90.4351 154.169 95.9062L171.679 141.522C179.502 161.903 168.147 178.424 146.316 178.424V178.424C130.592 178.424 113.276 166.524 107.641 151.844L87.4346 99.2035Z" fill="#4A4A4A"/>
</svg>
