<svg width="265" height="178" viewBox="0 0 265 178" fill="none" xmlns="http://www.w3.org/2000/svg">
<path d="M56.0727 49.298C58.7703 42.9007 68.2297 42.9006 70.9272 49.298L102.409 123.96C104.535 129 100.66 134.5 94.9822 134.5H32.0177C26.3401 134.5 22.4649 129 24.5905 123.96L56.0727 49.298Z" fill="#242424"/>
<path d="M211.927 127.702C209.23 134.099 199.77 134.099 197.073 127.702L165.591 53.0405C163.465 47.9995 167.34 42.5 173.018 42.5L235.982 42.5C241.66 42.5 245.535 47.9995 243.409 53.0405L211.927 127.702Z" fill="#797979"/>
<path d="M87.4346 55.7035C84.6354 48.4114 88.6982 42.5 96.5091 42.5H139.755C145.616 42.5 152.069 46.9351 154.169 52.4062L171.679 98.0217C179.502 118.403 168.147 134.924 146.316 134.924C130.592 134.924 113.276 123.024 107.641 108.344L87.4346 55.7035Z" fill="#4A4A4A"/>
</svg>
